<svg width="180" height="180" viewBox="0 0 180 180" fill="none" xmlns="http://www.w3.org/2000/svg">
  <!-- Dark background square with rounded corners -->
  <rect width="180" height="180" rx="36" fill="#1a0a00"/>
  <rect width="180" height="180" rx="36" fill="#FF4500" fill-opacity="0.18"/>
  <!-- Flame icon (lucide Flame path, centered and scaled) -->
  <g transform="translate(90,90) scale(4.5) translate(-12,-12)">
    <path
      d="M8.5 14.5A2.5 2.5 0 0 0 11 12c0-1.38-.5-2-1-3-1.072-2.143-.224-4.054 2-6 .5 2.5 2 4.9 4 6.5 2 1.6 3 3.5 3 5.5a7 7 0 1 1-14 0c0-1.153.433-2.294 1-3a2.5 2.5 0 0 0 2.5 2.5z"
      fill="#FF5500"
      stroke="none"
    />
  </g>
</svg>
